Coordinates
version=1
nRows=29
nColumns=24
inDegrees=yes

Units are S.I. units (second, meters, Newtons, ...)
Angles are in degrees.

endheader
time	pelvis_tilt	pelvis_list	pelvis_rotation	pelvis_tx	pelvis_ty	pelvis_tz	hip_flexion_r	hip_adduction_r	hip_rotation_r	knee_angle_r	ankle_angle_r	subtalar_angle_r	mtp_angle_r	hip_flexion_l	hip_adduction_l	hip_rotation_l	knee_angle_l	ankle_angle_l	subtalar_angle_l	mtp_angle_l	lumbar_extension	lumbar_bending	lumbar_rotation
      0.94566667	     -2.46828986	     -0.31752128	      0.24917958	     -0.10538153	      1.01702232	      0.27441902	    -11.96788479	      3.10156128	      1.93807701	    -11.81658462	      0.29100314	    -10.42415993	     19.67044021	     16.13988007	      0.03394822	      2.24131565	      4.20614830	      2.54628951	     -2.44511687	      5.43231242	    -11.38467544	      5.06318023	      4.63797083
      0.94983333	     -2.47125771	     -0.31681604	      0.22690188	     -0.09973250	      1.01629027	      0.27396930	    -12.07295088	      3.04214880	      1.72351493	    -12.23712348	      0.18218461	    -10.15124224	     19.72550344	     16.11772070	      0.10974967	      2.40566502	      4.33252372	      2.49280032	     -2.29166276	      5.42559256	    -11.31611154	      5.05583831	      4.60775414
      0.95400000	     -2.47150134	     -0.30950491	      0.21061702	     -0.09407052	      1.01555492	      0.27352989	    -12.16731246	      2.97998405	      1.51039469	    -12.68262185	      0.01347044	     -9.98006142	     19.77771719	     16.11020999	      0.19423620	      2.58912080	      4.34971385	      2.36375149	     -2.21367501	      5.42616173	    -11.25001322	      5.01998929	      4.58511426
      0.95816667	     -2.47595087	     -0.27260717	      0.17928614	     -0.08837955	      1.01481591	      0.27304117	    -12.21380691	      2.86759962	      1.24111489	    -13.22526365	     -0.02952250	     -9.56538601	     19.95650667	     16.09655563	      0.31144811	      2.85624235	      4.30310656	      2.21635493	     -2.30475379	      5.44061951	    -11.17976218	      4.99942647	      4.50481827
      0.96233333	     -2.48013926	     -0.22335025	      0.16598020	     -0.08266004	      1.01408282	      0.27254986	    -12.25920175	      2.74978042	      0.97230017	    -13.76411742	     -0.17304911	     -9.27469512	     20.20826008	     16.09951729	      0.44622643	      3.15415479	      4.15114110	      2.01749656	     -2.44174059	      5.46968349	    -11.10809917	      4.94642931	      4.44054314
      0.96650000	     -2.44610284	     -0.17146953	      0.15532651	     -0.07690683	      1.01343986	      0.27207872	    -12.35816147	      2.63857385	      0.75746970	    -14.26372346	     -0.45539983	     -9.20795739	     20.28563087	     16.09713871	      0.58674772	      3.35397034	      3.85361192	      1.84333654	     -2.46809434	      5.47969660	    -11.08078364	      4.88203271	      4.42693996
      0.97066667	     -2.47678206	     -0.10238069	      0.16383169	     -0.07116609	      1.01266659	      0.27153182	    -12.32610197	      2.49394704	      0.42737611	    -14.89146433	     -0.63658222	     -8.91885959	     25.35774495	     16.13935246	      0.75257318	      3.81453320	      3.55248656	      1.49597450	     -2.92569251	      6.27817802	    -10.97310770	      4.78473000	      4.32934756
      0.97483333	     -2.41662860	     -0.01062728	      0.16648621	     -0.06536208	      1.01206808	      0.27099493	    -12.40209014	      2.32510762	      0.11654086	    -15.49571447	     -0.87539264	     -8.60255887	     25.43411907	     16.11161069	      0.94399665	      4.10752043	      3.12472843	      1.23447473	     -3.13599723	      6.28361920	    -10.96730403	      4.67970781	      4.22345351
      0.97900000	     -2.40357168	      0.08824838	      0.18287191	     -0.05956455	      1.01139355	      0.27042858	    -12.39853971	      2.15072779	     -0.20094131	    -16.15717663	     -1.13345199	     -8.35117179	     25.58461417	     16.14831299	      1.15079653	      4.47362985	      2.61890994	      0.91770441	     -3.49711930	      6.30400260	    -10.90747844	      4.56571750	      4.13257639
      0.98316667	     -2.40972912	      0.17821481	      0.20463096	     -0.05376344	      1.01071104	      0.26986258	    -12.35549576	      1.98810045	     -0.50481175	    -16.84740700	     -1.44800738	     -8.15324238	     25.81111955	     16.22317757	      1.35238635	      4.84727490	      2.03020580	      0.58839257	     -3.90943895	      6.33723531	    -10.82031206	      4.45405900	      4.03559486
      0.98733333	     -2.36012451	      0.29815655	      0.22611242	     -0.04793045	      1.01012977	      0.26928605	    -12.36478670	      1.79124947	     -0.81096611	    -17.53563249	     -1.87036729	     -8.09145811	     29.72042644	     16.23565647	      1.58910005	      5.22960094	      1.40047921	      0.22384982	     -4.42273793	      6.95807341	    -10.80552036	      4.29787440	      3.97437556
      0.99150000	     -2.33552975	      0.41457579	      0.26223395	     -0.04210308	      1.00951214	      0.26867372	    -12.31303392	      1.59297396	     -1.15680658	    -18.29685833	     -2.25973151	     -7.85234088	     29.80002334	     16.31091493	      1.83056654	      5.54009973	      0.66473764	     -0.09535962	     -4.79054283	      6.95957619	    -10.75309493	      4.16358008	      3.83599052
      0.99566667	     -2.31832105	      0.53297192	      0.30380627	     -0.03628796	      1.00888713	      0.26804736	    -12.22864601	      1.39351112	     -1.48764735	    -19.09815016	     -2.69820988	     -7.69910313	     29.96399299	     16.39956360	      2.08030358	      5.90243761	     -0.11382047	     -0.43388347	     -5.30936911	      6.96763135	    -10.69608944	      4.02373402	      3.71694729
      0.99983333	     -2.29529390	      0.66762155	      0.34569375	     -0.03046615	      1.00829527	      0.26740456	    -12.13023426	      1.17281974	     -1.81735985	    -19.92897683	     -3.19009794	     -7.56843054	     30.20643086	     16.49300153	      2.35171690	      6.24463768	     -0.94502826	     -0.75750143	     -5.83632194	      6.97925077	    -10.65417265	      3.87607715	      3.59898349
      1.00400000	     -2.26527656	      0.80360750	      0.39192715	     -0.02464863	      1.00772858	      0.26676599	    -12.00687348	      0.94784025	     -2.16272742	    -20.81413067	     -3.74676195	     -7.47619227	     30.48607888	     16.58808587	      2.62659003	      6.55795164	     -1.81658169	     -1.04672535	     -6.32951746	      6.98883231	    -10.61172362	      3.70433122	      3.48926990
      1.00816667	     -2.21178695	      0.93531386	      0.41629029	     -0.01883280	      1.00721769	      0.26614417	    -11.89747643	      0.72364044	     -2.44865221	    -21.68909372	     -4.42225866	     -7.53586435	     35.42650982	     16.66001322	      2.89712806	      6.86765669	     -2.71827570	     -1.32970631	     -6.96958811	      7.11438449	    -10.61091525	      3.52784837	      3.44908510
      1.01233333	     -2.19367868	      1.07338857	      0.47325106	     -0.01304641	      1.00665884	      0.26546146	    -11.70095270	      0.48545411	     -2.80864088	    -22.67009482	     -5.06640820	     -7.41922176	     35.48826700	     16.80622670	      3.18441243	      7.09902253	     -3.70551861	     -1.49381409	     -7.34321000	      7.10672829	    -10.56363621	      3.37982599	      3.27811942
      1.01650000	     -2.10868443	      1.23235544	      0.50191297	     -0.00723650	      1.00622953	      0.26484942	    -11.57597755	      0.22791550	     -3.08805758	    -23.62938879	     -5.81525121	     -7.41152146	     35.54148160	     16.88349302	      3.48428012	      7.25781110	     -4.72651373	     -1.57032306	     -7.71705680	      7.09951291	    -10.60929367	      3.16375824	      3.19550385
      1.02066667	     -2.15867654	      1.33717971	      0.54147039	     -0.00153672	      1.00559435	      0.26416025	    -11.22546320	      0.01156348	     -3.39763022	    -24.73629805	     -6.51970062	     -7.36085582	     35.78472876	     17.10494449	      3.74318390	      7.55885510	     -5.74042606	     -1.75195356	     -8.35546127	      7.06255709	    -10.48276091	      3.06647203	      3.02647496
      1.02483333	     -2.07202117	      1.49681291	      0.55940454	      0.00422315	      1.00519150	      0.26351175	    -11.02270300	     -0.27074824	     -3.69989466	    -25.81443306	     -7.39486571	     -7.44035670	     39.55224511	     17.14473077	      4.04994517	      7.80796485	     -6.70757231	     -1.81252757	     -8.87973238	      6.45661944	    -10.53496283	      2.86938407	      2.98663366
      1.02900000	     -2.05021642	      1.63396786	      0.58335416	      0.00993258	      1.00469332	      0.26285608	    -10.70651495	     -0.53418346	     -3.99109565	    -26.97104818	     -8.26486266	     -7.44952550	     39.59698303	     17.29243636	      4.33375307	      7.96808263	     -7.76104590	     -1.74068240	     -9.20824744	      6.44907418	    -10.50896122	      2.72250854	      2.86108549
      1.03316667	     -1.97573050	      1.78030628	      0.58050175	      0.01562959	      1.00429385	      0.26225322	    -10.41838367	     -0.81463146	     -4.24803489	    -28.16126029	     -9.19919640	     -7.49321593	     39.66750052	     17.36255750	      4.61790065	      8.10254009	     -8.78143066	     -1.62225204	     -9.56469866	      6.43146473	    -10.54762428	      2.53516243	      2.77305537
      1.03733333	     -1.97977760	      1.90246730	      0.56735318	      0.02127271	      1.00379656	      0.26165041	    -10.00823669	     -1.07354483	     -4.45113720	    -29.40013059	    -10.17122047	     -7.57605458	     39.82613706	     17.53156340	      4.87911920	      8.23017702	     -9.83999940	     -1.46799366	     -9.95825861	      6.38204593	    -10.50473173	      2.40193476	      2.68387399
      1.04150000	     -1.85767931	      2.07258933	      0.52891788	      0.02694777	      1.00349872	      0.26108972	     -9.71653426	     -1.39898415	     -4.66724602	    -30.65514634	    -11.20623067	     -7.62111210	     39.90411117	     17.51654836	      5.17727177	      8.32781374	    -10.81048273	     -1.21527311	    -10.25569571	      6.35803859	    -10.61615723	      2.18590002	      2.62657442
      1.04566667	     -1.87570284	      2.17509806	      0.49565064	      0.03253165	      1.00299177	      0.26053038	     -9.22469392	     -1.65565323	     -4.85141736	    -31.97490247	    -12.29008787	     -7.74497827	     41.94593698	     17.71089044	      5.40058840	      8.30760871	    -11.90408560	     -0.77823310	    -10.29459915	      5.51477743	    -10.54846612	      2.10528139	      2.48037298
      1.04983333	     -1.77602157	      2.34778370	      0.41433007	      0.03814388	      1.00270093	      0.26004208	     -8.83883335	     -2.00042703	     -5.00495035	    -33.31473791	    -13.42143070	     -7.87998374	     41.99103032	     17.66918148	      5.68969630	      8.42263470	    -12.77371081	     -0.50751118	    -10.69449207	      5.49523801	    -10.64287734	      1.87113799	      2.50186994
      1.05400000	     -1.73259681	      2.48497914	      0.32054478	      0.04369919	      1.00234826	      0.25956219	     -8.36309330	     -2.30919848	     -5.10784716	    -34.67679257	    -14.59281970	     -8.06385919	     42.08448646	     17.70984207	      5.93715544	      8.46099496	    -13.68869734	     -0.18058309	    -11.02954832	      5.43580677	    -10.66664104	      1.71981771	      2.52444596
      1.05816667	     -1.62395891	      2.65545733	      0.20723633	      0.04926703	      1.00209765	      0.25912169	     -7.93655795	     -2.66908727	     -5.21893028	    -36.05943323	    -15.77206061	     -8.15120469	     42.12564680	     17.63406506	      6.20853291	      8.49044455	    -14.51240974	      0.23545013	    -11.26618389	      5.40369166	    -10.76513660	      1.51181793	      2.49400743
      1.06233333	     -1.59867684	      2.78292261	      0.08388879	      0.05475367	      1.00175120	      0.25873146	     -7.38798256	     -2.97423421	     -5.27059955	    -37.46173215	    -17.01117114	     -8.40623423	     42.18820941	     17.66845313	      6.42400388	      8.44365110	    -15.37052258	      0.66971150	    -11.44359452	      5.32044170	    -10.77412137	      1.37888686	      2.52262707
